<svg version="1.1" xmlns="http://www.w3.org/2000/svg" xmlns:xlink="http://www.w3.org/1999/xlink" width="290" height="271"><defs><clipPath id="lEWyUglfOipw"><path fill="none" stroke="none" d=" M 0 0 L 290 0 L 290 271 L 0 271 L 0 0 Z"/></clipPath></defs><g transform="scale(1,1)" clip-path="url(#lEWyUglfOipw)"><g><path fill="rgb(100,181,246)" stroke="none" paint-order="stroke fill markers" fill-rule="evenodd" d=" M 236.0493270210743 38.92213919957078 L 135.78153005876638 38.92213919957078 L 35.51373309645845 139.18993616187907 L 35.51373309645845 239.45773312418737 L 135.78153005876638 239.45773312418737 L 236.0493270210743 139.18993616187907 Z" fill-opacity="0.09803921568627451"/><path fill="none" stroke="rgb(100,181,246)" paint-order="fill stroke markers" d=" M 236.0493270210743 38.92213919957078 L 135.78153005876638 38.92213919957078" stroke-opacity="0.8" stroke-linecap="round" stroke-linejoin="round" stroke-miterlimit="10" stroke-width="2.5"/><path fill="none" stroke="rgb(100,181,246)" paint-order="fill stroke markers" d=" M 135.78153005876638 38.92213919957078 L 35.51373309645845 139.18993616187907" stroke-opacity="0.8" stroke-linecap="round" stroke-linejoin="round" stroke-miterlimit="10" stroke-width="2.5"/><path fill="none" stroke="rgb(100,181,246)" paint-order="fill stroke markers" d=" M 35.51373309645845 139.18993616187907 L 35.51373309645845 239.45773312418737" stroke-opacity="0.8" stroke-linecap="round" stroke-linejoin="round" stroke-miterlimit="10" stroke-width="2.5"/><path fill="none" stroke="rgb(100,181,246)" paint-order="fill stroke markers" d=" M 35.51373309645845 239.45773312418737 L 135.78153005876638 239.45773312418737" stroke-opacity="0.8" stroke-linecap="round" stroke-linejoin="round" stroke-miterlimit="10" stroke-width="2.5"/><path fill="none" stroke="rgb(100,181,246)" paint-order="fill stroke markers" d=" M 135.78153005876638 239.45773312418737 L 236.0493270210743 139.18993616187907" stroke-opacity="0.8" stroke-linecap="round" stroke-linejoin="round" stroke-miterlimit="10" stroke-width="2.5"/><path fill="none" stroke="rgb(100,181,246)" paint-order="fill stroke markers" d=" M 236.0493270210743 139.18993616187907 L 236.0493270210743 38.92213919957078" stroke-opacity="0.8" stroke-linecap="round" stroke-linejoin="round" stroke-miterlimit="10" stroke-width="2.5"/><path fill="rgb(100,181,246)" stroke="none" paint-order="stroke fill markers" d=" M 241.0493270210743 38.92213919957078 C 241.0493270210743 41.68356294872474 238.81075077022828 43.92213919957078 236.0493270210743 43.92213919957078 C 233.28790327192033 43.92213919957078 231.0493270210743 41.68356294872474 231.0493270210743 38.92213919957078 C 231.0493270210743 36.16071545041681 233.28790327192033 33.92213919957078 236.0493270210743 33.92213919957078 C 238.81075077022828 33.92213919957078 241.0493270210743 36.16071545041681 241.0493270210743 38.92213919957078 Z" fill-opacity="1"/><path fill="none" stroke="rgb(0,0,0)" paint-order="fill stroke markers" d=" M 241.0493270210743 38.92213919957078 C 241.0493270210743 41.68356294872474 238.81075077022828 43.92213919957078 236.0493270210743 43.92213919957078 C 233.28790327192033 43.92213919957078 231.0493270210743 41.68356294872474 231.0493270210743 38.92213919957078 C 231.0493270210743 36.16071545041681 233.28790327192033 33.92213919957078 236.0493270210743 33.92213919957078 C 238.81075077022828 33.92213919957078 241.0493270210743 36.16071545041681 241.0493270210743 38.92213919957078 Z" stroke-opacity="1" stroke-linecap="round" stroke-linejoin="round" stroke-miterlimit="10"/><text fill="rgb(100,181,246)" stroke="none" font-family="geogebra-sans-serif, sans-serif" font-size="16px" font-style="normal" font-weight="normal" text-decoration="normal" x="240" y="29" text-anchor="start" dominant-baseline="alphabetic" fill-opacity="1">P1</text><path fill="rgb(100,181,246)" stroke="none" paint-order="stroke fill markers" d=" M 140.78153005876638 38.92213919957078 C 140.78153005876638 41.68356294872474 138.54295380792036 43.92213919957078 135.78153005876638 43.92213919957078 C 133.0201063096124 43.92213919957078 130.78153005876638 41.68356294872474 130.78153005876638 38.92213919957078 C 130.78153005876638 36.16071545041681 133.0201063096124 33.92213919957078 135.78153005876638 33.92213919957078 C 138.54295380792036 33.92213919957078 140.78153005876638 36.16071545041681 140.78153005876638 38.92213919957078 Z" fill-opacity="1"/><path fill="none" stroke="rgb(0,0,0)" paint-order="fill stroke markers" d=" M 140.78153005876638 38.92213919957078 C 140.78153005876638 41.68356294872474 138.54295380792036 43.92213919957078 135.78153005876638 43.92213919957078 C 133.0201063096124 43.92213919957078 130.78153005876638 41.68356294872474 130.78153005876638 38.92213919957078 C 130.78153005876638 36.16071545041681 133.0201063096124 33.92213919957078 135.78153005876638 33.92213919957078 C 138.54295380792036 33.92213919957078 140.78153005876638 36.16071545041681 140.78153005876638 38.92213919957078 Z" stroke-opacity="1" stroke-linecap="round" stroke-linejoin="round" stroke-miterlimit="10"/><text fill="rgb(100,181,246)" stroke="none" font-family="geogebra-sans-serif, sans-serif" font-size="16px" font-style="normal" font-weight="normal" text-decoration="normal" x="140" y="29" text-anchor="start" dominant-baseline="alphabetic" fill-opacity="1">P2</text><path fill="rgb(100,181,246)" stroke="none" paint-order="stroke fill markers" d=" M 40.51373309645845 139.18993616187907 C 40.51373309645845 141.95135991103305 38.275156845612415 144.18993616187907 35.51373309645845 144.18993616187907 C 32.75230934730448 144.18993616187907 30.513733096458452 141.95135991103305 30.513733096458452 139.18993616187907 C 30.513733096458452 136.4285124127251 32.75230934730448 134.18993616187907 35.51373309645845 134.18993616187907 C 38.275156845612415 134.18993616187907 40.51373309645845 136.4285124127251 40.51373309645845 139.18993616187907 Z" fill-opacity="1"/><path fill="none" stroke="rgb(0,0,0)" paint-order="fill stroke markers" d=" M 40.51373309645845 139.18993616187907 C 40.51373309645845 141.95135991103305 38.275156845612415 144.18993616187907 35.51373309645845 144.18993616187907 C 32.75230934730448 144.18993616187907 30.513733096458452 141.95135991103305 30.513733096458452 139.18993616187907 C 30.513733096458452 136.4285124127251 32.75230934730448 134.18993616187907 35.51373309645845 134.18993616187907 C 38.275156845612415 134.18993616187907 40.51373309645845 136.4285124127251 40.51373309645845 139.18993616187907 Z" stroke-opacity="1" stroke-linecap="round" stroke-linejoin="round" stroke-miterlimit="10"/><text fill="rgb(100,181,246)" stroke="none" font-family="geogebra-sans-serif, sans-serif" font-size="16px" font-style="normal" font-weight="normal" text-decoration="normal" x="40" y="129" text-anchor="start" dominant-baseline="alphabetic" fill-opacity="1">P3</text><path fill="rgb(100,181,246)" stroke="none" paint-order="stroke fill markers" d=" M 40.51373309645845 239.45773312418737 C 40.51373309645845 242.21915687334135 38.275156845612415 244.45773312418737 35.51373309645845 244.45773312418737 C 32.75230934730448 244.45773312418737 30.513733096458452 242.21915687334135 30.513733096458452 239.45773312418737 C 30.513733096458452 236.6963093750334 32.75230934730448 234.45773312418737 35.51373309645845 234.45773312418737 C 38.275156845612415 234.45773312418737 40.51373309645845 236.6963093750334 40.51373309645845 239.45773312418737 Z" fill-opacity="1"/><path fill="none" stroke="rgb(0,0,0)" paint-order="fill stroke markers" d=" M 40.51373309645845 239.45773312418737 C 40.51373309645845 242.21915687334135 38.275156845612415 244.45773312418737 35.51373309645845 244.45773312418737 C 32.75230934730448 244.45773312418737 30.513733096458452 242.21915687334135 30.513733096458452 239.45773312418737 C 30.513733096458452 236.6963093750334 32.75230934730448 234.45773312418737 35.51373309645845 234.45773312418737 C 38.275156845612415 234.45773312418737 40.51373309645845 236.6963093750334 40.51373309645845 239.45773312418737 Z" stroke-opacity="1" stroke-linecap="round" stroke-linejoin="round" stroke-miterlimit="10"/><text fill="rgb(100,181,246)" stroke="none" font-family="geogebra-sans-serif, sans-serif" font-size="16px" font-style="normal" font-weight="normal" text-decoration="normal" x="40" y="229" text-anchor="start" dominant-baseline="alphabetic" fill-opacity="1">P4</text><path fill="rgb(100,181,246)" stroke="none" paint-order="stroke fill markers" d=" M 140.78153005876638 239.45773312418737 C 140.78153005876638 242.21915687334135 138.54295380792036 244.45773312418737 135.78153005876638 244.45773312418737 C 133.0201063096124 244.45773312418737 130.78153005876638 242.21915687334135 130.78153005876638 239.45773312418737 C 130.78153005876638 236.6963093750334 133.0201063096124 234.45773312418737 135.78153005876638 234.45773312418737 C 138.54295380792036 234.45773312418737 140.78153005876638 236.6963093750334 140.78153005876638 239.45773312418737 Z" fill-opacity="1"/><path fill="none" stroke="rgb(0,0,0)" paint-order="fill stroke markers" d=" M 140.78153005876638 239.45773312418737 C 140.78153005876638 242.21915687334135 138.54295380792036 244.45773312418737 135.78153005876638 244.45773312418737 C 133.0201063096124 244.45773312418737 130.78153005876638 242.21915687334135 130.78153005876638 239.45773312418737 C 130.78153005876638 236.6963093750334 133.0201063096124 234.45773312418737 135.78153005876638 234.45773312418737 C 138.54295380792036 234.45773312418737 140.78153005876638 236.6963093750334 140.78153005876638 239.45773312418737 Z" stroke-opacity="1" stroke-linecap="round" stroke-linejoin="round" stroke-miterlimit="10"/><text fill="rgb(100,181,246)" stroke="none" font-family="geogebra-sans-serif, sans-serif" font-size="16px" font-style="normal" font-weight="normal" text-decoration="normal" x="140" y="229" text-anchor="start" dominant-baseline="alphabetic" fill-opacity="1">P5</text><path fill="rgb(100,181,246)" stroke="none" paint-order="stroke fill markers" d=" M 241.0493270210743 139.18993616187907 C 241.0493270210743 141.95135991103305 238.81075077022828 144.18993616187907 236.0493270210743 144.18993616187907 C 233.28790327192033 144.18993616187907 231.0493270210743 141.95135991103305 231.0493270210743 139.18993616187907 C 231.0493270210743 136.4285124127251 233.28790327192033 134.18993616187907 236.0493270210743 134.18993616187907 C 238.81075077022828 134.18993616187907 241.0493270210743 136.4285124127251 241.0493270210743 139.18993616187907 Z" fill-opacity="1"/><path fill="none" stroke="rgb(0,0,0)" paint-order="fill stroke markers" d=" M 241.0493270210743 139.18993616187907 C 241.0493270210743 141.95135991103305 238.81075077022828 144.18993616187907 236.0493270210743 144.18993616187907 C 233.28790327192033 144.18993616187907 231.0493270210743 141.95135991103305 231.0493270210743 139.18993616187907 C 231.0493270210743 136.4285124127251 233.28790327192033 134.18993616187907 236.0493270210743 134.18993616187907 C 238.81075077022828 134.18993616187907 241.0493270210743 136.4285124127251 241.0493270210743 139.18993616187907 Z" stroke-opacity="1" stroke-linecap="round" stroke-linejoin="round" stroke-miterlimit="10"/><text fill="rgb(100,181,246)" stroke="none" font-family="geogebra-sans-serif, sans-serif" font-size="16px" font-style="normal" font-weight="normal" text-decoration="normal" x="240" y="129" text-anchor="start" dominant-baseline="alphabetic" fill-opacity="1">P6</text></g></g></svg>